<mxfile host="Electron" modified="2024-02-14T07:03:53.275Z" agent="Mozilla/5.0 (Macintosh; Intel Mac OS X 10_15_7) AppleWebKit/537.36 (KHTML, like Gecko) draw.io/23.0.2 Chrome/120.0.6099.109 Electron/28.1.0 Safari/537.36" etag="LGSwQBvhvC6nYobsE7ZP" version="23.0.2" type="device">
  <diagram name="Page-1" id="uzmI-NwjtMugdd6j4duK">
    <mxGraphModel dx="3731" dy="2637" grid="1" gridSize="10" guides="1" tooltips="1" connect="1" arrows="1" fold="1" page="1" pageScale="1" pageWidth="850" pageHeight="1100" math="0" shadow="0">
      <root>
        <mxCell id="0" />
        <mxCell id="1" parent="0" />
        <mxCell id="btQQe2l7GTRy6SkGM3Ak-29" value="" style="rounded=1;whiteSpace=wrap;html=1;" vertex="1" parent="1">
          <mxGeometry x="-1320" y="-140" width="1770" height="1080" as="geometry" />
        </mxCell>
        <mxCell id="btQQe2l7GTRy6SkGM3Ak-31" value="&lt;font style=&quot;font-size: 36px;&quot;&gt;Airflow&lt;/font&gt;" style="text;html=1;strokeColor=none;fillColor=none;align=center;verticalAlign=middle;whiteSpace=wrap;rounded=0;" vertex="1" parent="1">
          <mxGeometry x="-455" y="-90" width="60" height="30" as="geometry" />
        </mxCell>
        <mxCell id="btQQe2l7GTRy6SkGM3Ak-35" value="" style="edgeStyle=orthogonalEdgeStyle;rounded=0;orthogonalLoop=1;jettySize=auto;html=1;" edge="1" parent="1" source="btQQe2l7GTRy6SkGM3Ak-33" target="btQQe2l7GTRy6SkGM3Ak-34">
          <mxGeometry relative="1" as="geometry" />
        </mxCell>
        <mxCell id="btQQe2l7GTRy6SkGM3Ak-52" value="" style="edgeStyle=orthogonalEdgeStyle;rounded=0;orthogonalLoop=1;jettySize=auto;html=1;" edge="1" parent="1" source="btQQe2l7GTRy6SkGM3Ak-33" target="btQQe2l7GTRy6SkGM3Ak-51">
          <mxGeometry relative="1" as="geometry" />
        </mxCell>
        <mxCell id="btQQe2l7GTRy6SkGM3Ak-33" value="Task Executor" style="rounded=0;whiteSpace=wrap;html=1;" vertex="1" parent="1">
          <mxGeometry x="-1230" y="330" width="120" height="60" as="geometry" />
        </mxCell>
        <mxCell id="btQQe2l7GTRy6SkGM3Ak-37" value="" style="edgeStyle=orthogonalEdgeStyle;rounded=0;orthogonalLoop=1;jettySize=auto;html=1;" edge="1" parent="1" source="btQQe2l7GTRy6SkGM3Ak-34" target="btQQe2l7GTRy6SkGM3Ak-36">
          <mxGeometry relative="1" as="geometry" />
        </mxCell>
        <mxCell id="btQQe2l7GTRy6SkGM3Ak-38" value="" style="edgeStyle=orthogonalEdgeStyle;rounded=0;orthogonalLoop=1;jettySize=auto;html=1;" edge="1" parent="1" source="btQQe2l7GTRy6SkGM3Ak-34" target="btQQe2l7GTRy6SkGM3Ak-36">
          <mxGeometry relative="1" as="geometry" />
        </mxCell>
        <mxCell id="btQQe2l7GTRy6SkGM3Ak-40" value="" style="edgeStyle=orthogonalEdgeStyle;rounded=0;orthogonalLoop=1;jettySize=auto;html=1;" edge="1" parent="1" source="btQQe2l7GTRy6SkGM3Ak-34" target="btQQe2l7GTRy6SkGM3Ak-39">
          <mxGeometry relative="1" as="geometry" />
        </mxCell>
        <mxCell id="btQQe2l7GTRy6SkGM3Ak-34" value="Task Monitor" style="rounded=0;whiteSpace=wrap;html=1;" vertex="1" parent="1">
          <mxGeometry x="-1030" y="450" width="120" height="60" as="geometry" />
        </mxCell>
        <mxCell id="btQQe2l7GTRy6SkGM3Ak-36" value="Telemetry Database&lt;br&gt;(Loki, Elastic, Prometheus)" style="whiteSpace=wrap;html=1;rounded=0;" vertex="1" parent="1">
          <mxGeometry x="-1200" y="590" width="160" height="60" as="geometry" />
        </mxCell>
        <mxCell id="btQQe2l7GTRy6SkGM3Ak-50" style="edgeStyle=orthogonalEdgeStyle;rounded=0;orthogonalLoop=1;jettySize=auto;html=1;entryX=0.5;entryY=0;entryDx=0;entryDy=0;" edge="1" parent="1" source="btQQe2l7GTRy6SkGM3Ak-39" target="btQQe2l7GTRy6SkGM3Ak-42">
          <mxGeometry relative="1" as="geometry" />
        </mxCell>
        <mxCell id="btQQe2l7GTRy6SkGM3Ak-39" value="Monitoring Database&lt;br&gt;(MongoDB, Postgres)" style="whiteSpace=wrap;html=1;rounded=0;" vertex="1" parent="1">
          <mxGeometry x="-880" y="590" width="120" height="60" as="geometry" />
        </mxCell>
        <mxCell id="btQQe2l7GTRy6SkGM3Ak-42" value="task_table" style="swimlane;fontStyle=0;childLayout=stackLayout;horizontal=1;startSize=30;horizontalStack=0;resizeParent=1;resizeParentMax=0;resizeLast=0;collapsible=1;marginBottom=0;whiteSpace=wrap;html=1;" vertex="1" parent="1">
          <mxGeometry x="-890" y="720" width="140" height="150" as="geometry" />
        </mxCell>
        <mxCell id="btQQe2l7GTRy6SkGM3Ak-43" value="run_id int PK" style="text;strokeColor=none;fillColor=none;align=left;verticalAlign=middle;spacingLeft=4;spacingRight=4;overflow=hidden;points=[[0,0.5],[1,0.5]];portConstraint=eastwest;rotatable=0;whiteSpace=wrap;html=1;" vertex="1" parent="btQQe2l7GTRy6SkGM3Ak-42">
          <mxGeometry y="30" width="140" height="30" as="geometry" />
        </mxCell>
        <mxCell id="btQQe2l7GTRy6SkGM3Ak-44" value="start_time timestamp" style="text;strokeColor=none;fillColor=none;align=left;verticalAlign=middle;spacingLeft=4;spacingRight=4;overflow=hidden;points=[[0,0.5],[1,0.5]];portConstraint=eastwest;rotatable=0;whiteSpace=wrap;html=1;" vertex="1" parent="btQQe2l7GTRy6SkGM3Ak-42">
          <mxGeometry y="60" width="140" height="30" as="geometry" />
        </mxCell>
        <mxCell id="btQQe2l7GTRy6SkGM3Ak-45" value="end_time timestamp" style="text;strokeColor=none;fillColor=none;align=left;verticalAlign=middle;spacingLeft=4;spacingRight=4;overflow=hidden;points=[[0,0.5],[1,0.5]];portConstraint=eastwest;rotatable=0;whiteSpace=wrap;html=1;" vertex="1" parent="btQQe2l7GTRy6SkGM3Ak-42">
          <mxGeometry y="90" width="140" height="30" as="geometry" />
        </mxCell>
        <mxCell id="btQQe2l7GTRy6SkGM3Ak-46" value="status text" style="text;strokeColor=none;fillColor=none;align=left;verticalAlign=middle;spacingLeft=4;spacingRight=4;overflow=hidden;points=[[0,0.5],[1,0.5]];portConstraint=eastwest;rotatable=0;whiteSpace=wrap;html=1;" vertex="1" parent="btQQe2l7GTRy6SkGM3Ak-42">
          <mxGeometry y="120" width="140" height="30" as="geometry" />
        </mxCell>
        <mxCell id="btQQe2l7GTRy6SkGM3Ak-54" value="" style="edgeStyle=orthogonalEdgeStyle;rounded=0;orthogonalLoop=1;jettySize=auto;html=1;" edge="1" parent="1" source="btQQe2l7GTRy6SkGM3Ak-51" target="btQQe2l7GTRy6SkGM3Ak-53">
          <mxGeometry relative="1" as="geometry" />
        </mxCell>
        <mxCell id="btQQe2l7GTRy6SkGM3Ak-56" value="" style="edgeStyle=orthogonalEdgeStyle;rounded=0;orthogonalLoop=1;jettySize=auto;html=1;" edge="1" parent="1" source="btQQe2l7GTRy6SkGM3Ak-51" target="btQQe2l7GTRy6SkGM3Ak-55">
          <mxGeometry relative="1" as="geometry">
            <Array as="points">
              <mxPoint x="-970" y="100" />
            </Array>
          </mxGeometry>
        </mxCell>
        <mxCell id="btQQe2l7GTRy6SkGM3Ak-51" value="Tasks" style="whiteSpace=wrap;html=1;rounded=0;" vertex="1" parent="1">
          <mxGeometry x="-1030" y="210" width="120" height="60" as="geometry" />
        </mxCell>
        <mxCell id="btQQe2l7GTRy6SkGM3Ak-66" style="edgeStyle=orthogonalEdgeStyle;rounded=0;orthogonalLoop=1;jettySize=auto;html=1;entryX=0.5;entryY=1;entryDx=0;entryDy=0;" edge="1" parent="1" source="btQQe2l7GTRy6SkGM3Ak-53" target="btQQe2l7GTRy6SkGM3Ak-63">
          <mxGeometry relative="1" as="geometry" />
        </mxCell>
        <mxCell id="btQQe2l7GTRy6SkGM3Ak-53" value="Task 1" style="whiteSpace=wrap;html=1;rounded=0;" vertex="1" parent="1">
          <mxGeometry x="-810" y="210" width="120" height="60" as="geometry" />
        </mxCell>
        <mxCell id="btQQe2l7GTRy6SkGM3Ak-58" value="" style="edgeStyle=orthogonalEdgeStyle;rounded=0;orthogonalLoop=1;jettySize=auto;html=1;" edge="1" parent="1" source="btQQe2l7GTRy6SkGM3Ak-55" target="btQQe2l7GTRy6SkGM3Ak-57">
          <mxGeometry relative="1" as="geometry" />
        </mxCell>
        <mxCell id="btQQe2l7GTRy6SkGM3Ak-55" value="Task 2" style="whiteSpace=wrap;html=1;rounded=0;" vertex="1" parent="1">
          <mxGeometry x="-810" y="70" width="120" height="60" as="geometry" />
        </mxCell>
        <mxCell id="btQQe2l7GTRy6SkGM3Ak-60" value="" style="edgeStyle=orthogonalEdgeStyle;rounded=0;orthogonalLoop=1;jettySize=auto;html=1;" edge="1" parent="1" source="btQQe2l7GTRy6SkGM3Ak-57" target="btQQe2l7GTRy6SkGM3Ak-59">
          <mxGeometry relative="1" as="geometry" />
        </mxCell>
        <mxCell id="btQQe2l7GTRy6SkGM3Ak-57" value="Task 3" style="whiteSpace=wrap;html=1;rounded=0;" vertex="1" parent="1">
          <mxGeometry x="-610" y="70" width="120" height="60" as="geometry" />
        </mxCell>
        <mxCell id="btQQe2l7GTRy6SkGM3Ak-65" style="edgeStyle=orthogonalEdgeStyle;rounded=0;orthogonalLoop=1;jettySize=auto;html=1;" edge="1" parent="1" source="btQQe2l7GTRy6SkGM3Ak-59" target="btQQe2l7GTRy6SkGM3Ak-63">
          <mxGeometry relative="1" as="geometry" />
        </mxCell>
        <mxCell id="btQQe2l7GTRy6SkGM3Ak-59" value="Task 4" style="whiteSpace=wrap;html=1;rounded=0;" vertex="1" parent="1">
          <mxGeometry x="-410" y="70" width="120" height="60" as="geometry" />
        </mxCell>
        <mxCell id="btQQe2l7GTRy6SkGM3Ak-63" value="Results Database/Datalake" style="shape=cylinder;whiteSpace=wrap;html=1;boundedLbl=1;backgroundOutline=1;" vertex="1" parent="1">
          <mxGeometry x="-70" y="25" width="120" height="150" as="geometry" />
        </mxCell>
        <mxCell id="btQQe2l7GTRy6SkGM3Ak-70" value="&lt;div&gt;&lt;font style=&quot;font-size: 18px;&quot;&gt;SELECT start_time, end_time, status&lt;/font&gt;&lt;/div&gt;&lt;div&gt;&lt;font size=&quot;3&quot;&gt;FROM task_tablew&lt;/font&gt;&lt;/div&gt;&lt;div&gt;&lt;font size=&quot;3&quot;&gt;WHERE task_id = &#39;Task 1&#39;&lt;/font&gt;&lt;/div&gt;&lt;div&gt;&lt;font size=&quot;3&quot;&gt;AND start_time &amp;gt;= &#39;2024-01-01 14:00:00&#39;&lt;/font&gt;&lt;/div&gt;&lt;div&gt;&lt;font size=&quot;3&quot;&gt;AND end_time &amp;lt;= &#39;2024-01-01 14:10:00&#39;;&lt;/font&gt;&lt;/div&gt;&lt;div&gt;&lt;br&gt;&lt;/div&gt;" style="rounded=0;whiteSpace=wrap;html=1;align=left;" vertex="1" parent="1">
          <mxGeometry x="-630" y="690" width="380" height="200" as="geometry" />
        </mxCell>
      </root>
    </mxGraphModel>
  </diagram>
</mxfile>
